<?xml version="1.0" encoding="UTF-8"?>
<svg width="29px" height="29px" viewBox="0 0 29 29" version="1.1" xmlns="http://www.w3.org/2000/svg" xmlns:xlink="http://www.w3.org/1999/xlink">
    <title>Shape</title>
    <g id="UI-rd1" stroke="none" stroke-width="1" fill="none" fill-rule="evenodd" opacity="0.550525484">
        <g id="Medium-Copy" transform="translate(-40.000000, -1275.000000)" fill="#688DB6" fill-rule="nonzero">
            <g id="noun-help-2302541" transform="translate(40.000000, 1275.000000)">
                <path d="M14.5,0 C6.49187113,0 0,6.49187113 0,14.5 C0,22.5081289 6.49187113,29 14.5,29 C22.5081289,29 29,22.5081289 29,14.5 C29,10.6543609 27.4723258,6.96622916 24.7530483,4.24695167 C22.0337708,1.52767419 18.3456391,0 14.5,0 Z M16.0631,21.7036 C16.0631,22.0495512 15.7826512,22.33 15.4367,22.33 L13.0123,22.33 C12.6663488,22.33 12.3859,22.0495512 12.3859,21.7036 L12.3859,19.6736 C12.3859,19.3276488 12.6663488,19.0472 13.0123,19.0472 L15.4367,19.0472 C15.7826512,19.0472 16.0631,19.3276488 16.0631,19.6736 L16.0631,21.7036 Z M18.3367,14.3289 C18.0061,14.5638 17.6436,14.7552 17.2985,14.9756 C16.7185,15.3497 16.24,15.8137 16.1385,16.5503 C16.1008,16.8026 15.9094,16.9012 15.6629,16.9012 L14.2999,16.9012 C13.8562,16.9012 13.4154,16.9012 12.9717,16.9012 C12.6034,16.9012 12.4729,16.7388 12.4381,16.3792 C12.3018,15.0365 12.9891,14.1317 13.9983,13.398 C14.2883,13.1805 14.6392,13.0152 14.9582,12.818 C15.2201972,12.6835478 15.4721811,12.5304191 15.7122,12.3598 C16.0152036,12.1362978 16.1908817,11.7796359 16.1833874,11.4031943 C16.1758932,11.0267527 15.986159,10.6773654 15.6745,10.4661 C14.8052914,9.81835827 13.5948026,9.89570187 12.8151,10.6488 C12.4845,10.9852 12.18,11.3477 11.89,11.7044 C11.8239297,11.8203387 11.7070685,11.8983453 11.5746559,11.9148968 C11.4422432,11.9314484 11.3097761,11.8846079 11.2172,11.7885 L9.4279,10.469 C9.0625,10.1993 9.0335,10.0572 9.2771,9.6628 C10.2022,8.1664 11.4724,7.1514 13.2269,6.8063 C15.2221,6.4119 16.9969,6.8701 18.4701,8.2708 C19.2962329,8.9863455 19.8025344,10.0020803 19.8766,11.0925 C19.9874924,12.3706037 19.3983895,13.6087183 18.3367,14.3289 L18.3367,14.3289 Z" id="Shape"></path>
            </g>
        </g>
    </g>
</svg>