<?xml version="1.0" encoding="UTF-8"?>
<svg width="27px" height="29px" viewBox="0 0 27 29" version="1.1" xmlns="http://www.w3.org/2000/svg" xmlns:xlink="http://www.w3.org/1999/xlink">
    <title>noun-directory-2216428</title>
    <g id="UI-rd1" stroke="none" stroke-width="1" fill="none" fill-rule="evenodd">
        <g id="Medium-Copy" transform="translate(-247.000000, -1275.000000)" fill="#688DB6" fill-rule="nonzero">
            <g id="noun-directory-2216428" transform="translate(247.000000, 1275.000000)">
                <path d="M26.578125,10.4920405 C26.746875,10.4920405 27,10.2402315 27,10.0723589 L27,6.71490593 C27,6.54703329 26.746875,6.29522431 26.578125,6.29522431 L24.890625,6.29522431 L24.890625,2.51808973 C24.890625,1.80463097 24.6796875,1.25904486 24.1734375,0.755426918 C23.6671875,0.251808973 23.034375,0 22.359375,0 L2.615625,0 C1.8984375,0 1.3078125,0.251808973 0.8015625,0.755426918 C0.253125,1.25904486 0,1.88856729 0,2.60202605 L0,26.397974 C0,27.1114327 0.253125,27.698987 0.759375,28.2445731 C1.265625,28.748191 1.8984375,29 2.5734375,29 L22.3171875,29 C23.034375,29 23.625,28.748191 24.13125,28.2445731 C24.6796875,27.698987 24.890625,27.1534009 24.890625,26.4399421 L24.890625,22.6628075 L26.578125,22.6628075 C26.746875,22.6628075 27,22.3690304 27,22.2431259 L27,19.3053546 C27,19.1374819 26.746875,18.8856729 26.578125,18.8856729 L24.890625,18.8856729 L24.890625,16.3675832 L26.578125,16.3675832 C26.746875,16.3675832 27,16.1157742 27,15.9479016 L27,13.0101302 C27,12.8422576 27,12.5904486 26.578125,12.5904486 L24.890625,12.5904486 L24.890625,10.4920405 L26.578125,10.4920405 Z M9.4921875,7.42836469 C10.3359375,6.58900145 11.30625,6.21128799 12.4875,6.21128799 C13.6265625,6.21128799 14.6390625,6.63096961 15.4828125,7.42836469 C16.3265625,8.26772793 16.70625,9.23299566 16.70625,10.4081042 C16.70625,11.5412446 16.284375,12.5484805 15.4828125,13.3458755 C14.6390625,14.1852388 13.66875,14.5629522 12.4875,14.5629522 C11.3484375,14.5629522 10.3359375,14.1432706 9.4921875,13.3458755 C8.6484375,12.5065123 8.26875,11.5412446 8.26875,10.4081042 C8.2265625,9.23299566 8.6484375,8.26772793 9.4921875,7.42836469 Z M18.815625,21.9493488 C18.3515625,22.4529667 17.803125,22.7467438 17.128125,22.7467438 L7.8046875,22.7467438 C7.1296875,22.7467438 6.58125,22.4949349 6.1171875,21.9493488 C5.653125,21.4457308 5.4421875,20.7742402 5.4421875,19.9768452 C5.4421875,19.3473227 5.484375,18.8017366 5.5265625,18.2561505 C5.56875,17.7105644 5.6953125,17.1649783 5.8640625,16.6193922 C6.0328125,16.0738061 6.24375,15.6121563 6.496875,15.2344428 C6.75,14.8567294 7.0875,14.5209841 7.5515625,14.3111433 C7.9734375,14.0593343 8.4796875,13.9334298 9.028125,13.9334298 C9.1125,13.975398 9.28125,14.1013025 9.5765625,14.2691751 C9.871875,14.4370478 10.125,14.5629522 10.2515625,14.6468886 C10.4203125,14.7308249 10.63125,14.8567294 10.9265625,14.9826339 C11.221875,15.1085384 11.475,15.1924747 11.728125,15.276411 C11.98125,15.3183792 12.234375,15.3603473 12.4875,15.3603473 C12.740625,15.3603473 12.99375,15.3183792 13.246875,15.276411 C13.5,15.2344428 13.753125,15.1505065 14.0484375,14.9826339 C14.34375,14.8567294 14.5546875,14.7308249 14.7234375,14.6468886 C14.8921875,14.5629522 15.103125,14.4370478 15.3984375,14.2691751 C15.69375,14.1013025 15.8625,13.975398 15.946875,13.9334298 C16.4953125,13.9334298 17.0015625,14.0593343 17.4234375,14.3111433 C17.8453125,14.5629522 18.1828125,14.8567294 18.478125,15.2344428 C18.73125,15.6121563 18.9421875,16.0738061 19.1109375,16.6193922 C19.2796875,17.1649783 19.40625,17.7105644 19.4484375,18.2561505 C19.490625,18.8017366 19.5328125,19.3892909 19.5328125,19.9768452 C19.490625,20.7742402 19.2796875,21.4457308 18.815625,21.9493488 Z" id="Shape"></path>
            </g>
        </g>
    </g>
</svg>