<?xml version="1.0" encoding="UTF-8"?>
<svg width="23px" height="28px" viewBox="0 0 23 28" version="1.1" xmlns="http://www.w3.org/2000/svg" xmlns:xlink="http://www.w3.org/1999/xlink">
    <title>noun-form-3542491</title>
    <g id="UI-rd1" stroke="none" stroke-width="1" fill="none" fill-rule="evenodd" opacity="0.600539435">
        <g id="Medium-Copy" transform="translate(-422.000000, -1275.000000)" fill="#688DB6" fill-rule="nonzero">
            <g id="noun-form-3542491" transform="translate(422.000000, 1275.000000)">
                <path d="M4.31987078,0 C1.95574516,0 0,1.8943955 0,4.19767558 L0,23.8023243 C0,26.1056038 1.95574516,28 4.31987078,28 L18.682946,28 C21.0470717,28 23,26.1056038 23,23.8023243 L23,4.19767558 C23,1.8943955 21.0470717,0 18.682946,0 L4.31987078,0 Z M7.19417017,5.60053617 L15.8086466,5.60053617 C16.1898017,5.59909609 16.5559371,5.74521913 16.8265064,6.00677034 C17.0970757,6.26832155 17.249915,6.62387579 17.2514122,6.99521444 C17.2529004,7.36844864 17.1013781,7.72681794 16.8304837,7.99073721 C16.5595893,8.25465649 16.1917474,8.40227864 15.8086466,8.40083114 L7.19417017,8.40083114 C6.81106693,8.40228238 6.44322128,8.25466188 6.17232379,7.9907422 C5.9014263,7.72682252 5.74990202,7.36845108 5.7513902,6.99521444 C5.75288741,6.62387335 5.90572875,6.26831699 6.17630116,6.00676538 C6.44687356,5.74521376 6.81301262,5.59909237 7.19417017,5.60053617 Z M7.19417017,11.2010829 L11.5,11.2010829 C12.289335,11.2040952 12.9284528,11.8267553 12.9315552,12.5957615 C12.9337692,12.9675732 12.7841155,13.3249836 12.5155702,13.5891785 C12.247025,13.8533735 11.8816443,14.002654 11.5,14.0041124 L7.19417017,14.0041124 C6.81057809,14.0055691 6.44230262,13.8575741 6.17132313,13.593061 C5.90034365,13.328548 5.74915101,12.9694708 5.75137646,12.5957615 C5.75288734,12.2244204 5.90572864,11.8688639 6.17630106,11.6073123 C6.44687347,11.3457606 6.81301257,11.1996391 7.19417017,11.2010829 L7.19417017,11.2010829 Z M15.8086466,11.201083 C16.1898018,11.1996429 16.5559372,11.345766 16.8265065,11.6073172 C17.0970758,11.8688685 17.2499151,12.2244228 17.251426,12.5957615 C17.2536514,12.9694684 17.1024607,13.3285434 16.8314844,13.5930561 C16.560508,13.8575687 16.1922362,14.0055653 15.8086466,14.0041124 C15.4269998,14.0026577 15.0616155,13.8533788 14.7930671,13.5891835 C14.5245187,13.3249881 14.3748631,12.9675756 14.3770771,12.5957615 C14.3801795,11.8267499 15.019306,11.2040875 15.8086466,11.201083 L15.8086466,11.201083 Z M7.19417017,16.8043643 L15.8086466,16.8043643 C16.1898018,16.8029243 16.5559372,16.9490473 16.8265065,17.2105986 C17.0970758,17.4721499 17.2499151,17.8277042 17.2514012,18.1990429 C17.2499151,18.5703816 17.0970758,18.9259359 16.8265065,19.1874872 C16.5559372,19.4490384 16.1898018,19.5951615 15.8086466,19.5937214 L7.19417017,19.5937214 C6.81301257,19.5951652 6.44687347,19.4490438 6.17630106,19.1874921 C5.90572864,18.9259405 5.75288734,18.570384 5.75140122,18.1990429 C5.75288734,17.8277018 5.90572864,17.4721453 6.17630106,17.2105936 C6.44687347,16.949042 6.81301257,16.8029205 7.19417017,16.8043643 L7.19417017,16.8043643 Z" id="Shape"></path>
            </g>
        </g>
    </g>
</svg>